<?xml version="1.0" standalone="no"?>
<!DOCTYPE svg PUBLIC "-//W3C//DTD SVG 20010904//EN"
 "http://www.w3.org/TR/2001/REC-SVG-20010904/DTD/svg10.dtd">
<svg version="1.0" xmlns="http://www.w3.org/2000/svg"
 width="1152.000000pt" height="2048.000000pt" viewBox="0 0 1152.000000 2048.000000"
 preserveAspectRatio="xMidYMid meet">

<g transform="translate(0.000000,2048.000000) scale(0.100000,-0.100000)"
fill="#000000" stroke="none">
<!-- circle -->
<path d="M2977 19360 c-474 -39 -883 -197 -1277 -494 -123 -92 -324 -294 -422
-422 -351 -461 -513 -961 -495 -1533 3 -97 13 -225 22 -286 78 -503 309 -961
670 -1320 294 -294 652 -505 1041 -613 476 -133 969 -118 1438 45 143 49 384
170 523 262 478 318 831 806 982 1356 57 210 81 392 81 623 0 405 -83 751
-263 1097 -243 465 -592 809 -1056 1040 -175 88 -291 131 -466 175 -244 62
-549 89 -778 70z m431 -405 c505 -63 970 -321 1294 -720 256 -314 406 -697
439 -1121 36 -460 -117 -966 -407 -1342 -168 -217 -426 -431 -672 -556 -187
-95 -346 -148 -557 -188 -102 -19 -154 -22 -345 -22 -243 0 -307 8 -525 64
-554 143 -1047 565 -1285 1098 -126 284 -172 504 -172 832 0 233 25 399 93
603 144 430 429 802 800 1043 273 178 594 290 904 317 108 10 324 5 433 -8z"/>
<!-- heart -->
<path d="M7190 16465 c-318 -60 -527 -169 -745 -389 -215 -216 -337 -439 -409
-746 -63 -273 -33 -644 80 -965 191 -544 558 -979 1409 -1671 88 -72 240 -195
339 -275 98 -79 208 -168 245 -198 108 -88 214 -121 329 -102 93 15 154 48
277 150 61 50 209 171 330 269 567 457 790 654 1018 900 324 349 552 744 638
1105 102 424 65 818 -106 1160 -200 396 -552 668 -975 753 -105 21 -316 29
-438 15 -306 -33 -533 -121 -760 -292 l-42 -33 -28 22 c-51 42 -187 130 -248
160 -95 48 -257 100 -378 123 -146 27 -428 34 -536 14z m449 -400 c385 -68
627 -281 715 -626 14 -52 26 -87 29 -79 3 8 15 53 27 100 102 392 453 623 945
623 119 -1 166 -5 227 -21 186 -50 331 -133 465 -268 208 -209 313 -475 313
-795 0 -576 -290 -1064 -1000 -1684 -191 -167 -256 -220 -555 -459 -166 -132
-283 -228 -407 -334 -15 -13 -26 -6 -110 63 -51 42 -181 147 -288 233 -485
389 -649 531 -881 762 -207 206 -305 321 -414 484 -138 209 -227 413 -276 638
-29 135 -37 395 -15 510 78 413 347 724 726 839 135 41 321 46 499 14z"/>
<!-- star -->
<path d="M4331 12620 c-94 -22 -201 -93 -251 -166 -27 -39 -257 -502 -527
-1064 -41 -85 -76 -156 -78 -158 -1 -2 -155 -26 -341 -53 -187 -27 -488 -71
-669 -98 -301 -44 -336 -51 -393 -80 -72 -37 -137 -96 -176 -164 -78 -133 -73
-326 11 -448 28 -40 363 -376 802 -806 l174 -170 -17 -104 c-20 -119 -81 -472
-156 -899 -43 -242 -51 -309 -47 -375 6 -106 35 -178 100 -248 91 -97 147
-127 272 -147 119 -19 168 -1 545 200 613 326 836 443 845 443 5 0 118 -58
250 -128 132 -70 285 -151 340 -180 55 -29 207 -110 339 -180 293 -156 352
-175 470 -155 120 20 248 103 302 196 36 62 64 156 64 218 0 47 -93 608 -185
1116 -19 107 -35 206 -35 220 0 20 103 127 494 515 473 469 496 493 517 550
30 83 36 204 14 281 -24 84 -58 135 -130 202 -88 81 -131 93 -500 147 -666 96
-987 144 -991 147 -3 4 -190 385 -329 673 -243 504 -263 541 -320 598 -60 60
-114 91 -198 113 -56 15 -142 17 -196 4z m178 -592 c43 -90 181 -372 306 -628
125 -256 236 -485 248 -508 11 -24 29 -48 41 -53 20 -8 607 -94 1186 -174 146
-20 271 -39 278 -41 12 -3 -504 -521 -942 -946 l-120 -115 12 -74 c32 -196
107 -634 172 -1002 40 -224 70 -410 68 -413 -3 -3 -189 93 -414 212 -225 119
-461 243 -524 277 -63 33 -164 87 -225 119 -60 32 -124 66 -141 74 l-31 17
-259 -138 c-142 -75 -344 -182 -449 -238 -104 -55 -262 -138 -350 -185 -257
-136 -268 -142 -273 -137 -2 2 16 122 42 267 25 145 62 355 81 468 19 113 50
295 70 405 19 110 40 232 47 270 l11 70 -302 300 c-166 165 -408 403 -538 530
-196 191 -232 231 -217 237 11 4 181 30 379 58 455 63 1043 149 1073 156 24 5
51 58 347 669 215 445 335 685 340 685 3 0 41 -73 84 -162z"/>
<!-- triangle -->
<path d="M8303 7565 c-140 -39 -210 -104 -318 -297 -38 -68 -96 -170 -130
-228 -34 -58 -158 -274 -275 -480 -117 -206 -237 -415 -266 -465 -29 -49 -190
-333 -359 -630 -170 -297 -349 -612 -400 -700 -321 -555 -545 -956 -555 -995
-15 -56 -15 -170 1 -218 31 -98 90 -173 176 -229 106 -68 -48 -64 2244 -61
l2074 3 55 22 c31 13 82 46 113 74 97 86 139 178 138 300 -1 125 15 93 -401
819 -134 234 -260 454 -280 490 -50 90 -513 900 -560 980 -32 54 -523 915
-748 1310 -80 141 -112 184 -171 233 -88 72 -230 103 -338 72z m135 -462 c22
-38 50 -86 62 -108 12 -22 48 -85 80 -140 56 -98 244 -425 283 -495 76 -136
603 -1059 662 -1160 40 -69 130 -226 200 -350 70 -124 142 -250 160 -280 54
-89 515 -901 515 -906 0 -2 -902 -4 -2005 -4 -1103 0 -2005 2 -2005 4 0 2 103
183 228 403 125 219 239 418 253 443 51 90 553 968 609 1065 32 55 194 339
360 630 166 292 335 586 374 655 40 69 96 167 125 218 29 50 54 92 56 92 2 0
22 -30 43 -67z"/>
<!-- square -->
<path d="M1313 5256 c-101 -32 -179 -102 -225 -202 l-23 -49 -3 -1790 c-2
-1288 0 -1807 8 -1850 19 -102 92 -200 185 -248 74 -38 100 -38 1940 -35
l1790 3 60 28 c76 35 139 97 173 167 l27 55 0 1840 0 1840 -26 55 c-33 70 -99
135 -169 169 l-55 26 -1820 2 c-1486 1 -1828 -1 -1862 -11z m3595 -2078 l2
-1748 -1750 0 -1750 0 0 1743 c0 959 3 1747 7 1750 3 4 790 6 1747 5 l1741 -3
3 -1747z"/>
</g>
</svg>
